{
  "source": "C:\\Users\\Peter\\Desktop\\stuff\\MIUN\\quantitative_research\\video_compression\\videos\\BVI-HD\\BVI-HD_CDVL_videos\\ORIG\\TreeGrassFamily_1920x1080_30fps.mp4",
  "output": "C:\\Users\\Peter\\Desktop\\stuff\\MIUN\\quantitative_research\\video_compression\\compressed_videos\\BVI-HD\\h264\\1.5\\TreeGrassFamily_1920x1080_30fps_h264.mp4",
  "codec": "h264",
  "ok": "Input #0, mov,mp4,m4a,3gp,3g2,mj2, from 'C:\\Users\\Peter\\Desktop\\stuff\\MIUN\\quantitative_research\\video_compression\\videos\\BVI-HD\\BVI-HD_CDVL_videos\\ORIG\\TreeGrassFamily_1920x1080_30fps.mp4':\n  Metadata:\n    major_brand     : isom\n    minor_version   : 512\n    compatible_brands: isomiso2avc1mp41\n    encoder         : Lavf54.28.101\n  Duration: 00:00:05.00, start: 0.000000, bitrate: 331787 kb/s\n  Stream #0:0[0x1](und): Video: h264 (High 4:4:4 Predictive) (avc1 / 0x31637661), yuv420p(progressive), 1920x1080, 331784 kb/s, 30 fps, 30 tbr, 30 tbn (default)\n    Metadata:\n      handler_name    : VideoHandler\n      vendor_id       : [0][0][0][0]\n[out#0/mp4 @ 0000025b0471f040] Codec AVOption b:a (set bitrate (in bits/s)) has not been used for any stream. The most likely reason is either wrong type (e.g. a video option with no video streams) or that it is a private option of some decoder which was not actually used for any stream.\nStream mapping:\n  Stream #0:0 -> #0:0 (h264 (native) -> h264 (libx264))\nPress [q] to stop, [?] for help\n[libx264 @ 0000025b047d75c0] using cpu capabilities: MMX2 SSE2Fast SSSE3 SSE4.2 AVX FMA3 BMI2 AVX2\n[libx264 @ 0000025b047d75c0] profile High, level 5.0, 4:2:0, 8-bit\n[libx264 @ 0000025b047d75c0] 264 - core 165 r3222 b35605a - H.264/MPEG-4 AVC codec - Copyleft 2003-2025 - http://www.videolan.org/x264.html - options: cabac=1 ref=5 deblock=1:0:0 analyse=0x3:0x113 me=hex subme=8 psy=1 psy_rd=1.00:0.00 mixed_ref=1 me_range=16 chroma_me=1 trellis=2 8x8dct=1 cqm=0 deadzone=21,11 fast_pskip=1 chroma_qp_offset=-2 threads=18 lookahead_threads=3 sliced_threads=0 nr=0 decimate=1 interlaced=0 bluray_compat=0 constrained_intra=0 bframes=3 b_pyramid=2 b_adapt=1 b_bias=0 direct=3 weightb=1 open_gop=0 weightp=2 keyint=250 keyint_min=25 scenecut=40 intra_refresh=0 rc_lookahead=50 rc=cbr mbtree=1 bitrate=1500 ratetol=1.0 qcomp=0.60 qpmin=0 qpmax=69 qpstep=4 vbv_maxrate=1500 vbv_bufsize=1500 nal_hrd=none filler=0 ip_ratio=1.40 aq=1:1.00\nOutput #0, mp4, to 'C:\\Users\\Peter\\Desktop\\stuff\\MIUN\\quantitative_research\\video_compression\\compressed_videos\\BVI-HD\\h264\\1.5\\TreeGrassFamily_1920x1080_30fps_h264.mp4':\n  Metadata:\n    major_brand     : isom\n    minor_version   : 512\n    compatible_brands: isomiso2avc1mp41\n    encoder         : Lavf62.3.100\n  Stream #0:0(und): Video: h264 (avc1 / 0x31637661), yuv420p(tv, progressive), 1920x1080, q=2-31, 1500 kb/s, 30 fps, 15360 tbn (default)\n    Metadata:\n      encoder         : Lavc62.11.100 libx264\n      handler_name    : VideoHandler\n      vendor_id       : [0][0][0][0]\n    Side data:\n      cpb: bitrate max/min/avg: 1500000/0/1500000 buffer size: 1500000 vbv_delay: N/A\nframe=    0 fps=0.0 q=0.0 size=       0KiB time=N/A bitrate=N/A speed=N/A elapsed=0:00:00.52    \nframe=    0 fps=0.0 q=0.0 size=       0KiB time=N/A bitrate=N/A speed=N/A elapsed=0:00:01.15    \nframe=    0 fps=0.0 q=0.0 size=       0KiB time=N/A bitrate=N/A speed=N/A elapsed=0:00:01.68    \nframe=    0 fps=0.0 q=0.0 size=       0KiB time=N/A bitrate=N/A speed=N/A elapsed=0:00:02.24    \nframe=   20 fps=7.0 q=44.0 size=       0KiB time=00:00:00.46 bitrate=   0.8kbits/s speed=0.163x elapsed=0:00:02.86    \nframe=   40 fps= 12 q=45.0 size=       0KiB time=00:00:01.13 bitrate=   0.3kbits/s speed=0.326x elapsed=0:00:03.47    \nframe=   57 fps= 14 q=45.0 size=       0KiB time=00:00:01.83 bitrate=   0.2kbits/s speed=0.446x elapsed=0:00:04.10    \nframe=   76 fps= 16 q=45.0 size=     256KiB time=00:00:02.46 bitrate= 850.4kbits/s speed=0.531x elapsed=0:00:04.64    \nframe=  109 fps= 21 q=43.0 size=     256KiB time=00:00:03.56 bitrate= 588.1kbits/s speed=0.687x elapsed=0:00:05.19    \nframe=  141 fps= 24 q=-1.0 size=     512KiB time=00:00:04.56 bitrate= 918.5kbits/s speed=0.782x elapsed=0:00:05.83    \n[mp4 @ 0000025b03949a40] Starting second pass: moving the moov atom to the beginning of the file\n[out#0/mp4 @ 0000025b0471f040] video:704KiB audio:0KiB subtitle:0KiB other streams:0KiB global headers:0KiB muxing overhead: 0.368676%\nframe=  150 fps= 24 q=-1.0 Lsize=     707KiB time=00:00:04.93 bitrate=1173.9kbits/s speed=0.804x elapsed=0:00:06.13    \n[libx264 @ 0000025b047d75c0] frame I:1     Avg QP:45.95  size: 26073\n[libx264 @ 0000025b047d75c0] frame P:38    Avg QP:44.94  size: 10796\n[libx264 @ 0000025b047d75c0] frame B:111   Avg QP:48.27  size:  2560\n[libx264 @ 0000025b047d75c0] consecutive B-frames:  1.3%  0.0%  0.0% 98.7%\n[libx264 @ 0000025b047d75c0] mb I  I16..4: 48.7% 49.5%  1.8%\n[libx264 @ 0000025b047d75c0] mb P  I16..4:  0.4%  1.6%  0.0%  P16..4: 31.2%  3.8%  6.4%  0.0%  0.0%    skip:56.6%\n[libx264 @ 0000025b047d75c0] mb B  I16..4:  0.0%  0.1%  0.0%  B16..8: 24.6%  0.6%  0.1%  direct: 0.1%  skip:74.5%  L0:33.1% L1:66.4% BI: 0.4%\n[libx264 @ 0000025b047d75c0] 8x8 transform intra:63.9% inter:86.2%\n[libx264 @ 0000025b047d75c0] direct mvs  spatial:91.0% temporal:9.0%\n[libx264 @ 0000025b047d75c0] coded y,uvDC,uvAC intra: 32.6% 23.7% 0.7% inter: 3.1% 0.9% 0.0%\n[libx264 @ 0000025b047d75c0] i16 v,h,dc,p: 39% 22% 12% 27%\n[libx264 @ 0000025b047d75c0] i8 v,h,dc,ddl,ddr,vr,hd,vl,hu:  5%  2%  8% 21% 14% 12% 10% 19%  8%\n[libx264 @ 0000025b047d75c0] i4 v,h,dc,ddl,ddr,vr,hd,vl,hu:  3%  2%  4% 21% 16% 16% 13% 11% 14%\n[libx264 @ 0000025b047d75c0] i8c dc,h,v,p: 94%  4%  2%  0%\n[libx264 @ 0000025b047d75c0] Weighted P-Frames: Y:0.0% UV:0.0%\n[libx264 @ 0000025b047d75c0] ref P L0: 58.2%  3.6% 20.3%  7.0% 10.9%\n[libx264 @ 0000025b047d75c0] ref B L0: 77.5% 15.0%  5.0%  2.5%\n[libx264 @ 0000025b047d75c0] ref B L1: 94.5%  5.5%\n[libx264 @ 0000025b047d75c0] kb/s:1152.75\n",
  "seconds": 6.563814640045166,
  "probe_out": {}
}